<svg viewBox="0 0 134 32" fill="none" xmlns="http://www.w3.org/2000/svg"><path d="M127.279 11.5l2.194-3.8a.465.465 0 00-.514-.629.461.461 0 00-.277.165l-2.222 3.859a13.786 13.786 0 00-11.287 0l-2.222-3.85a.464.464 0 00-.791.464l2.194 3.792a12.954 12.954 0 00-6.717 10.372H134a12.958 12.958 0 00-6.721-10.372zm-12.534 6.617a1.1 1.1 0 01-.777-1.875 1.098 1.098 0 11.777 1.875zm12.137 0a1.098 1.098 0 11-.004-2.197 1.098 1.098 0 01.004 2.197z" fill="#00DE7A"/><path d="M7.85 20.368c-.607.843-1.8 1.507-3.132 1.507-2.626.059-4.774-2.329-4.717-5.088-.059-2.76 2.095-5.149 4.717-5.09 1.332 0 2.525.666 3.132 1.508V7h2.154v14.679H7.85v-1.31zm-4.853-1.35a2.71 2.71 0 002.114.9c.86 0 1.565-.294 2.094-.9a3.44 3.44 0 000-4.462c-.529-.608-1.237-.901-2.094-.901a2.71 2.71 0 00-2.114.9 3.5 3.5 0 000 4.463zm19.299-1.703h-7.79c.025.722.335 1.404.861 1.898.547.51 1.252.763 2.094.763 1.116 0 2.016-.45 2.472-1.37h2.251a4.378 4.378 0 01-1.722 2.35c-.843.605-1.88.919-3.074.919-2.877 0-5.009-2.173-5.009-5.088 0-2.916 2.049-5.09 5.023-5.09 2.859 0 4.914 2.134 4.914 5.187l-.02.431zm-2.31-1.526c-.31-1.508-1.37-2.29-2.642-2.29-1.391 0-2.473.822-2.76 2.29h5.402zm13.82-3.896l-4.444 9.787h-1.9l-4.422-9.787h2.388l2.974 6.85 2.994-6.85h2.41zm10.647 5.422h-7.79c.025.722.335 1.404.861 1.898.572.517 1.323.79 2.094.763 1.116 0 2.016-.45 2.472-1.37h2.251a4.371 4.371 0 01-1.722 2.35c-.84.605-1.88.919-3.072.919-2.877 0-5.01-2.173-5.01-5.088 0-2.916 2.054-5.09 5.029-5.09 2.858 0 4.913 2.134 4.913 5.187l-.026.431zm-2.31-1.526c-.31-1.508-1.37-2.29-2.642-2.29-1.391 0-2.473.822-2.76 2.29h5.402zM48.955 7v14.679h-2.152V7h2.152zm7.458 4.697a5.09 5.09 0 11-5.128 5.09 5.063 5.063 0 015.128-5.09zm0 1.997c-1.742 0-2.955 1.37-2.955 3.09 0 1.72 1.212 3.09 2.955 3.09 1.7 0 2.936-1.37 2.936-3.09 0-1.72-1.233-3.09-2.936-3.09zm9.591 12.076H63.85V11.893h2.154v1.308c.606-.843 1.82-1.508 3.15-1.508 2.627-.06 4.776 2.33 4.718 5.09.058 2.759-2.094 5.146-4.718 5.087-1.33 0-2.544-.664-3.15-1.506v5.406zm2.76-5.853c1.7 0 2.915-1.369 2.915-3.13 0-1.762-1.213-3.132-2.915-3.132-1.703 0-2.936 1.37-2.936 3.132 0 1.761 1.213 3.13 2.936 3.13zm16.676-2.602h-7.79c.025.722.335 1.404.862 1.898.547.51 1.251.763 2.093.763 1.116 0 2.017-.45 2.472-1.37h2.252a4.38 4.38 0 01-1.723 2.35c-.842.605-1.879.919-3.073.919-2.877 0-5.01-2.173-5.01-5.088 0-2.916 2.056-5.09 5.03-5.09 2.857 0 4.913 2.134 4.913 5.187l-.026.431zm-2.318-1.526c-.309-1.508-1.37-2.29-2.642-2.29-1.39 0-2.472.822-2.76 2.29h5.402zm6.82-3.896v1.742a2.781 2.781 0 012.584-1.839c.282-.005.564.02.84.077v2.213a3.623 3.623 0 00-1.081-.176c-1.312 0-2.349 1.115-2.349 2.994v4.776H87.79v-9.787h2.153zm6.753 6.811c.154.998.978 1.448 2.016 1.448.958 0 1.585-.39 1.585-1.037 0-.646-.43-1.037-1.449-1.291l-1.604-.432c-1.644-.41-2.506-1.486-2.506-2.954 0-1.644 1.45-2.74 3.64-2.74 2.114 0 3.583 1.155 3.739 2.935h-2.153c-.177-.782-.822-1.213-1.604-1.213-.842 0-1.43.372-1.43.998s.45.94 1.312 1.174l1.644.431c1.742.45 2.602 1.428 2.602 2.955 0 1.854-1.565 2.897-3.835 2.897-1.155 0-2.133-.294-2.935-.86a2.95 2.95 0 01-1.254-2.31h2.232z" fill="#000"/></svg>
