<?xml version="1.0" encoding="utf-8"?>
<!-- Generator: Adobe Illustrator 23.1.0, SVG Export Plug-In . SVG Version: 6.00 Build 0)  -->
<svg xmlns="http://www.w3.org/2000/svg" xmlns:xlink="http://www.w3.org/1999/xlink" version="1.1" x="0px" y="0px" viewBox="0 0 372.5 116.2" style="enable-background:new 0 0 372.5 116.2;" xml:space="preserve">
<style type="text/css">
	.st0{fill:#064F8C;}
	.st1{fill:#249847;}
	.st2{fill:#BE2128;}
	.st3{fill:#485A61;}
	.st4{fill:#CDCDCE;}
</style>
<g id="Layer_2">
</g>
<g id="Layer_1">
	<g id="Layer_2_2_">
	</g>
	<polygon class="st0" points="57.2,8.5 11.5,99.4 61.6,56.9  "/>
	<polygon class="st1" points="102.2,102.3 40.4,77.3 11.1,102.3  "/>
	<polygon class="st2" points="105.2,101.4 59.3,10 66.1,85.6  "/>
	<g>
		<g>
			<g>
				<path class="st3" d="M128.6,62.1c-1.2,5.8-0.5,10.5,2.1,14c2.6,3.5,6.7,5.3,12.2,5.3c2.3,0,4.6-0.2,6.9-0.7      c2.4-0.5,4.1-1,5.3-1.5l-1.4,8.9c-2,0.6-4.1,1-6.2,1.3c-2.2,0.3-4.5,0.5-6.9,0.5c-9.3,0-16-2.4-20.1-7.1      c-4.1-4.8-5.3-11.5-3.4-20.2c1.9-8.9,6-15.9,12.3-21c6.3-5.1,14-7.7,23-7.7c2.7,0,5.2,0.2,7.2,0.7c2.1,0.5,3.8,1,5.1,1.5      l-2.8,9.2c-1.4-0.9-3-1.6-4.9-2.1c-1.9-0.5-3.9-0.7-6-0.7c-5.5,0-10.3,1.8-14.4,5.4C132.5,51.5,129.8,56.3,128.6,62.1z"/>
			</g>
			<g>
				<path class="st3" d="M216.4,34.9h17.4l-11.5,54.2h-10.4l9.5-44.9l-24.3,44.9h-10.4l-5.1-45.2L172,89.1h-10.4l11.5-54.2h17.4      l4.2,41.3L216.4,34.9z"/>
			</g>
			<g>
				<path class="st3" d="M259.2,82.5c-2.3,2.9-4.6,4.9-7.1,5.9c-2.5,1-4.8,1.6-7,1.6c-4.2,0-7.3-1.2-9.4-3.5c-2-2.3-2.7-5.1-2-8.4      c1-4.5,3.3-7.9,7.1-10.2c3.8-2.3,8.9-3.5,15.3-3.5h6.4l0.2-0.9c0.6-2.8,0.2-4.9-1.1-6c-1.3-1.2-3.4-1.7-6.3-1.7      c-2.2,0-4.4,0.4-6.8,1.2c-2.4,0.8-4.5,1.9-6.3,3.3l1.6-9.1c1.5-0.7,3.8-1.4,6.9-2.1c3.1-0.6,5.7-1,7.9-1      c6.1,0,10.1,1.4,12.2,4.1c2.1,2.7,2.5,7.2,1.2,13.3l-2.3,10.7c-0.7,3.5-1.3,6.5-1.7,9c-0.4,2.5-0.5,3.8-0.5,3.8h-9.3      c-0.1,0-0.1-0.6,0.1-1.9C258.5,85.9,258.8,84.3,259.2,82.5z M261,71.3l0.1-0.7h-4.7c-3.9,0.1-6.8,0.7-8.8,1.8      c-2,1.1-3.3,2.7-3.8,4.9c-0.3,1.6-0.1,2.9,0.8,3.8c0.9,0.9,2.4,1.4,4.6,1.4c3.1,0,5.6-1.1,7.7-3.3C259,76.9,260.4,74.3,261,71.3      z"/>
			</g>
			<g>
				<path class="st3" d="M289.7,30.8H300l-7.3,34.5l16.1-16.2h12.3l-18.8,17.9l12.1,22.1h-13.4l-9.3-19.7l-4.2,19.7h-10.3      L289.7,30.8z"/>
			</g>
			<g>
				<path class="st3" d="M352.8,86.8c-2,1-4.1,1.8-6.4,2.3c-2.3,0.6-4.8,0.9-7.4,0.9c-6.9,0-11.9-1.8-14.8-5.4      c-2.9-3.6-3.7-8.8-2.2-15.6c1.3-6.3,4.1-11.3,8.3-15.1c4.2-3.8,9.1-5.7,14.7-5.7c6.7,0,11.1,2,13.2,6.1c2.1,4.1,2.3,10.1,0.6,18      h-27.7c-0.1,2.8,0.4,5,1.3,6.5c1.5,2.4,4.2,3.6,8.1,3.6c2.8,0,5.6-0.5,8.4-1.6c2.8-1.1,4.7-1.9,5.7-2.5L352.8,86.8z M332.5,65.1      h17.9c0.5-3,0.2-5.3-1-6.9c-1.1-1.6-3-2.4-5.7-2.4c-3,0-5.6,1.2-7.8,3.5C334.7,60.7,333.5,62.7,332.5,65.1z"/>
			</g>
		</g>
	</g>
	<g>
		<polygon class="st4" points="61.8,59.2 42.1,75.9 64.1,84.8   "/>
	</g>
</g>
</svg>
