<?xml version="1.0" encoding="UTF-8"?><svg xmlns="http://www.w3.org/2000/svg" width="1200" height="675" viewBox="0 0 1200 675"><g id="Caption"><rect width="1200" height="675" fill="#fff"/><g><rect x="36" y="639" width="18" height="18" fill="#6faddf"/><text transform="translate(62 653.63)" font-family="ArialMT, Arial" font-size="16.09"><tspan x="0" y="0">NX</tspan><tspan x="22.35" y="0" letter-spacing="-.02em">P </tspan><tspan x="36.98" y="0" letter-spacing="-.11em">T</tspan><tspan x="45.02" y="0">echnology</tspan></text></g></g><g id="_5VIO-CAN-BD-02"><g><g><line x1="714.67" y1="350.23" x2="556.52" y2="350.23" fill="none" stroke="#333f48" stroke-miterlimit="10"/><polygon points="713.21 345.24 721.85 350.23 713.21 355.22 713.21 345.24" fill="#333f48"/></g><g><line x1="1055.54" y1="337.7" x2="925.07" y2="337.7" fill="none" stroke="#333f48" stroke-miterlimit="10"/><polygon points="1054.08 332.71 1062.71 337.7 1054.08 342.68 1054.08 332.71" fill="#333f48"/></g><g><line x1="1092.03" y1="446.9" x2="925.07" y2="446.9" fill="none" stroke="#333f48" stroke-miterlimit="10"/><polygon points="1090.57 441.91 1099.2 446.9 1090.57 451.89 1090.57 441.91" fill="#333f48"/></g><line x1="353.29" y1="339.57" x2="277.68" y2="339.57" fill="none" stroke="#333f48" stroke-miterlimit="10"/><g><polyline points="454.9 320.03 454.9 269.2 840.97 269.2" fill="none" stroke="#333f48" stroke-miterlimit="10"/><circle cx="840.81" cy="269.2" r="3.2" fill="#333f48"/></g><line x1="1064.76" y1="176.29" x2="1064.76" y2="558.11" fill="none" stroke="#333f48" stroke-miterlimit="10"/><line x1="1099.2" y1="176.29" x2="1099.2" y2="558.11" fill="none" stroke="#333f48" stroke-miterlimit="10"/><line x1="844" y1="216.55" x2="844" y2="320.03" fill="none" stroke="#333f48" stroke-miterlimit="10"/><g><line x1="1010.02" y1="337.65" x2="1010.02" y2="446.95" fill="none" stroke="#333f48" stroke-miterlimit="10"/><path d="M1006.83,337.81c0-1.76,1.43-3.2,3.2-3.2s3.2,1.43,3.2,3.2-1.43,3.2-3.2,3.2-3.2-1.43-3.2-3.2Z" fill="#333f48"/><path d="M1006.83,446.79c0,1.76,1.43,3.2,3.2,3.2s3.2-1.43,3.2-3.2c0-1.76-1.43-3.2-3.2-3.2s-3.2,1.43-3.2,3.2Z" fill="#333f48"/></g><polyline points="844 136.03 844 77.36 353.29 77.36" fill="none" stroke="#333f48" stroke-miterlimit="10"/><polyline points="454.9 462.37 454.9 503.23 823.46 503.23 823.46 462.37" fill="none" stroke="#333f48" stroke-miterlimit="10"/><line x1="353.29" y1="350.23" x2="277.68" y2="350.23" fill="none" stroke="#333f48" stroke-miterlimit="10"/><line x1="353.29" y1="360.89" x2="277.68" y2="360.89" fill="none" stroke="#333f48" stroke-miterlimit="10"/><line x1="353.29" y1="371.56" x2="277.68" y2="371.56" fill="none" stroke="#333f48" stroke-miterlimit="10"/><line x1="353.29" y1="382.22" x2="277.68" y2="382.22" fill="none" stroke="#333f48" stroke-miterlimit="10"/><line x1="353.29" y1="392.88" x2="277.68" y2="392.88" fill="none" stroke="#333f48" stroke-miterlimit="10"/><line x1="353.29" y1="403.54" x2="277.68" y2="403.54" fill="none" stroke="#333f48" stroke-miterlimit="10"/><line x1="353.29" y1="414.21" x2="277.68" y2="414.21" fill="none" stroke="#333f48" stroke-miterlimit="10"/><line x1="353.29" y1="424.87" x2="277.68" y2="424.87" fill="none" stroke="#333f48" stroke-miterlimit="10"/><line x1="353.29" y1="435.53" x2="277.68" y2="435.53" fill="none" stroke="#333f48" stroke-miterlimit="10"/><g><line x1="714.67" y1="408.41" x2="556.52" y2="408.41" fill="none" stroke="#333f48" stroke-miterlimit="10"/><polygon points="713.21 403.42 721.85 408.41 713.21 413.4 713.21 403.42" fill="#333f48"/></g><g><line x1="721.85" y1="440.35" x2="563.69" y2="440.35" fill="none" stroke="#333f48" stroke-miterlimit="10"/><polygon points="565.15 435.36 556.52 440.35 565.15 445.34 565.15 435.36" fill="#333f48"/></g><rect x="353.29" y="320.03" width="203.23" height="142.34" fill="#6faddf"/><rect x="74.33" y="320.03" width="203.23" height="142.34" fill="#e5eaed"/><g><rect x="1005.37" y="349.82" width="9.3" height="32" fill="#fff"/><path d="M1014.17,350.32v31h-8.3v-31h8.3m1-1h-10.3v33h10.3v-33h0Z" fill="#333f48"/></g><g><rect x="1005.37" y="404.51" width="9.3" height="32" fill="#fff"/><path d="M1014.17,405.01v31h-8.3v-31h8.3m1-1h-10.3v33h10.3v-33h0Z" fill="#333f48"/></g><rect x="947.62" y="398.86" width="23.63" height="10.3" fill="#333f48"/><g><path d="M438,382.2l2.73-.28c.08,.62,.31,1.11,.69,1.47s.83,.54,1.33,.54c.57,0,1.06-.23,1.46-.7s.6-1.17,.6-2.1c0-.88-.2-1.54-.59-1.98s-.91-.66-1.54-.66c-.79,0-1.49,.35-2.12,1.04l-2.23-.32,1.41-7.45h7.26v2.57h-5.18l-.43,2.43c.61-.31,1.24-.46,1.88-.46,1.22,0,2.25,.44,3.1,1.33s1.27,2.03,1.27,3.45c0,1.18-.34,2.23-1.03,3.15-.93,1.26-2.22,1.89-3.88,1.89-1.32,0-2.4-.35-3.23-1.06s-1.33-1.66-1.49-2.86Z"/><path d="M458.9,385.88l-5.12-14.32h3.13l3.62,10.6,3.51-10.6h3.07l-5.13,14.32h-3.09Z"/><path d="M433.55,407.88v-14.32h4.33l2.6,9.77,2.57-9.77h4.34v14.32h-2.69v-11.27l-2.84,11.27h-2.78l-2.83-11.27v11.27h-2.69Z"/><path d="M459.41,402.61l2.8,.89c-.43,1.56-1.14,2.72-2.14,3.48s-2.27,1.14-3.8,1.14c-1.9,0-3.46-.65-4.69-1.95s-1.84-3.07-1.84-5.33c0-2.38,.62-4.23,1.85-5.55s2.85-1.98,4.85-1.98c1.75,0,3.17,.52,4.27,1.55,.65,.61,1.14,1.49,1.46,2.64l-2.86,.68c-.17-.74-.52-1.33-1.06-1.76s-1.19-.64-1.96-.64c-1.06,0-1.92,.38-2.58,1.14s-.99,2-.99,3.7c0,1.81,.33,3.1,.98,3.87s1.5,1.15,2.54,1.15c.77,0,1.43-.24,1.98-.73s.95-1.26,1.19-2.3Z"/><path d="M464.67,393.56h2.89v7.75c0,1.23,.04,2.03,.11,2.39,.12,.59,.42,1.06,.88,1.41s1.1,.53,1.91,.53,1.44-.17,1.86-.5,.67-.75,.75-1.24,.13-1.3,.13-2.43v-7.92h2.89v7.52c0,1.72-.08,2.93-.23,3.64s-.44,1.31-.86,1.8-.98,.88-1.68,1.17-1.62,.43-2.75,.43c-1.37,0-2.4-.16-3.11-.47s-1.26-.73-1.67-1.23-.68-1.03-.81-1.59c-.19-.82-.28-2.03-.28-3.63v-7.64Z"/></g><rect x="721.85" y="320.03" width="203.23" height="142.34" fill="#6faddf"/><g><path d="M812.41,380.61l2.8,.89c-.43,1.56-1.14,2.72-2.14,3.48s-2.27,1.14-3.8,1.14c-1.9,0-3.46-.65-4.69-1.95s-1.84-3.07-1.84-5.33c0-2.38,.62-4.23,1.85-5.55s2.85-1.98,4.85-1.98c1.75,0,3.17,.52,4.27,1.55,.65,.61,1.14,1.49,1.46,2.64l-2.86,.68c-.17-.74-.52-1.33-1.06-1.76s-1.19-.64-1.96-.64c-1.06,0-1.92,.38-2.58,1.14s-.99,2-.99,3.7c0,1.81,.33,3.1,.98,3.87s1.5,1.15,2.54,1.15c.77,0,1.43-.24,1.98-.73s.95-1.26,1.19-2.3Z"/><path d="M830.6,385.88h-3.14l-1.25-3.25h-5.72l-1.18,3.25h-3.07l5.58-14.32h3.06l5.73,14.32Zm-5.32-5.66l-1.97-5.31-1.93,5.31h3.91Z"/><path d="M832.16,385.88v-14.32h2.81l5.86,9.56v-9.56h2.69v14.32h-2.9l-5.77-9.34v9.34h-2.69Z"/><path d="M772.54,407.88v-11.89h-4.25v-2.42h11.38v2.42h-4.24v11.89h-2.89Z"/><path d="M783.04,407.88h-2.74v-10.37h2.55v1.47c.44-.7,.83-1.16,1.18-1.38s.74-.33,1.19-.33c.62,0,1.23,.17,1.81,.52l-.85,2.39c-.46-.3-.89-.45-1.29-.45s-.71,.11-.98,.32-.48,.59-.63,1.15-.23,1.71-.23,3.48v3.2Z"/><path d="M790.25,400.67l-2.49-.45c.28-1,.76-1.75,1.45-2.23s1.7-.72,3.05-.72c1.22,0,2.14,.14,2.73,.43s1.02,.66,1.26,1.1,.37,1.26,.37,2.46l-.03,3.2c0,.91,.04,1.58,.13,2.02s.25,.9,.49,1.39h-2.71c-.07-.18-.16-.45-.26-.81-.05-.16-.08-.27-.1-.32-.47,.46-.97,.8-1.5,1.03s-1.1,.34-1.71,.34c-1.07,0-1.91-.29-2.52-.87s-.92-1.31-.92-2.2c0-.59,.14-1.11,.42-1.57s.67-.81,1.18-1.05,1.23-.46,2.18-.64c1.28-.24,2.17-.47,2.67-.67v-.27c0-.53-.13-.9-.39-1.13s-.75-.34-1.47-.34c-.49,0-.87,.1-1.14,.29s-.5,.53-.66,1.01Zm3.67,2.23c-.35,.12-.91,.26-1.67,.42s-1.26,.32-1.49,.48c-.36,.25-.54,.58-.54,.97s.14,.72,.43,1,.65,.42,1.09,.42c.5,0,.97-.16,1.42-.49,.33-.25,.55-.55,.65-.91,.07-.23,.11-.68,.11-1.34v-.55Z"/><path d="M808.75,407.88h-2.74v-5.29c0-1.12-.06-1.84-.18-2.17s-.31-.58-.57-.77-.58-.27-.95-.27c-.48,0-.9,.13-1.28,.39s-.64,.61-.78,1.04-.21,1.22-.21,2.38v4.7h-2.74v-10.37h2.55v1.52c.91-1.17,2.04-1.76,3.42-1.76,.61,0,1.16,.11,1.66,.33s.88,.5,1.14,.83,.44,.72,.54,1.15,.15,1.04,.15,1.85v6.45Z"/><path d="M810.57,404.92l2.75-.42c.12,.53,.35,.94,.71,1.22s.86,.42,1.5,.42c.71,0,1.24-.13,1.6-.39,.24-.18,.36-.43,.36-.73,0-.21-.07-.38-.2-.52-.14-.13-.44-.25-.92-.36-2.21-.49-3.62-.93-4.21-1.34-.82-.56-1.23-1.34-1.23-2.33,0-.9,.35-1.65,1.06-2.27s1.81-.92,3.3-.92,2.47,.23,3.16,.69,1.17,1.15,1.43,2.05l-2.59,.48c-.11-.4-.32-.71-.63-.93s-.75-.32-1.32-.32c-.72,0-1.24,.1-1.55,.3-.21,.14-.31,.33-.31,.56,0,.2,.09,.36,.27,.5,.25,.18,1.1,.44,2.56,.77s2.48,.74,3.06,1.22c.57,.49,.86,1.17,.86,2.04,0,.95-.4,1.77-1.19,2.45s-1.97,1.03-3.53,1.03c-1.41,0-2.53-.29-3.35-.86s-1.36-1.35-1.62-2.33Z"/><path d="M831.7,400.57l-2.71,.49c-.09-.54-.3-.95-.62-1.22s-.74-.41-1.25-.41c-.68,0-1.23,.24-1.64,.71s-.61,1.26-.61,2.37c0,1.23,.21,2.1,.62,2.61s.97,.76,1.67,.76c.52,0,.95-.15,1.28-.44s.57-.81,.7-1.53l2.7,.46c-.28,1.24-.82,2.17-1.61,2.8s-1.86,.95-3.19,.95c-1.52,0-2.73-.48-3.63-1.44s-1.35-2.28-1.35-3.97,.45-3.04,1.36-4,2.13-1.43,3.67-1.43c1.26,0,2.27,.27,3.01,.82s1.28,1.37,1.61,2.49Z"/><path d="M839.79,404.58l2.73,.46c-.35,1-.91,1.77-1.67,2.29s-1.71,.79-2.85,.79c-1.8,0-3.14-.59-4-1.77-.68-.94-1.03-2.14-1.03-3.57,0-1.72,.45-3.06,1.35-4.04s2.03-1.46,3.41-1.46c1.54,0,2.76,.51,3.65,1.53s1.32,2.58,1.28,4.68h-6.88c.02,.81,.24,1.45,.66,1.9s.95,.68,1.58,.68c.43,0,.79-.12,1.08-.35s.51-.61,.66-1.13Zm.16-2.77c-.02-.79-.22-1.4-.62-1.81s-.87-.62-1.43-.62c-.6,0-1.09,.22-1.48,.65s-.58,1.03-.58,1.78h4.1Z"/><path d="M844.9,396.1v-2.54h2.74v2.54h-2.74Zm0,11.78v-10.37h2.74v10.37h-2.74Z"/><path d="M853.31,407.88l-4.18-10.37h2.88l1.95,5.29,.57,1.77c.15-.45,.24-.75,.28-.89,.09-.29,.19-.59,.29-.88l1.97-5.29h2.82l-4.12,10.37h-2.47Z"/><path d="M867.59,404.58l2.73,.46c-.35,1-.91,1.77-1.67,2.29s-1.71,.79-2.85,.79c-1.8,0-3.14-.59-4-1.77-.68-.94-1.03-2.14-1.03-3.57,0-1.72,.45-3.06,1.35-4.04s2.03-1.46,3.41-1.46c1.54,0,2.76,.51,3.65,1.53s1.32,2.58,1.28,4.68h-6.88c.02,.81,.24,1.45,.66,1.9s.95,.68,1.58,.68c.43,0,.79-.12,1.08-.35s.51-.61,.66-1.13Zm.16-2.77c-.02-.79-.22-1.4-.62-1.81s-.87-.62-1.43-.62c-.6,0-1.09,.22-1.48,.65s-.58,1.03-.58,1.78h4.1Z"/><path d="M875.33,407.88h-2.74v-10.37h2.55v1.47c.44-.7,.83-1.16,1.18-1.38s.74-.33,1.19-.33c.62,0,1.23,.17,1.81,.52l-.85,2.39c-.46-.3-.89-.45-1.29-.45s-.71,.11-.98,.32-.48,.59-.63,1.15-.23,1.71-.23,3.48v3.2Z"/></g><rect x="775.72" y="136.03" width="136.56" height="80.52" fill="#6faddf"/><text transform="translate(822.89 181.23)" font-family="Arial-BoldMT, Arial" font-size="20"><tspan x="0" y="0">LDO</tspan></text><text transform="translate(121.51 396.68)" font-family="Arial-BoldMT, Arial" font-size="20"><tspan x="0" y="0">Application</tspan></text><text transform="translate(1041.2 163.14)" font-family="ArialMT, Arial" font-size="20"><tspan x="0" y="0">CAN Bus</tspan></text><text transform="translate(231.99 85.8)" font-family="ArialMT, Arial" font-size="16"><tspan x="0" y="0">V</tspan></text><text transform="translate(242.67 91.13) scale(.58)" font-family="ArialMT, Arial" font-size="16"><tspan x="0" y="0">B</tspan><tspan x="10.67" y="0" letter-spacing="-.07em">A</tspan><tspan x="20.16" y="0" letter-spacing="-.02em">T</tspan></text><text transform="translate(850.43 247.43)" font-family="ArialMT, Arial" font-size="16"><tspan x="0" y="0">5 V</tspan></text><text transform="translate(850.43 302.46)" font-family="ArialMT, Arial" font-size="16"><tspan x="0" y="0">V</tspan></text><text transform="translate(861.1 307.79) scale(.58)" font-family="ArialMT, Arial" font-size="16"><tspan x="0" y="0">CC</tspan></text><text transform="translate(930.51 331.51)" font-family="ArialMT, Arial" font-size="16"><tspan x="0" y="0">CANH</tspan></text><text transform="translate(930.51 467.22)" font-family="ArialMT, Arial" font-size="16"><tspan x="0" y="0">CAN</tspan><tspan x="33.78" y="0" letter-spacing="-.04em">L</tspan></text><text transform="translate(647.55 527.23)" font-family="ArialMT, Arial" font-size="16"><tspan x="0" y="0">GND</tspan></text><text transform="translate(673.29 403.54)" font-family="ArialMT, Arial" font-size="16"><tspan x="0" y="0">TXD</tspan></text><text transform="translate(673.29 432.01)" font-family="ArialMT, Arial" font-size="16"><tspan x="0" y="0">RXD</tspan></text><text transform="translate(526.34 339.57)" font-family="ArialMT, Arial" font-size="16"><tspan x="0" y="0">I/O</tspan></text><g><g><line x1="627.37" y1="539.01" x2="650.99" y2="539.01" fill="none" stroke="#333f48" stroke-miterlimit="10"/><line x1="630.81" y1="543.46" x2="647.55" y2="543.46" fill="none" stroke="#333f48" stroke-miterlimit="10"/></g><line x1="639.18" y1="539.13" x2="639.18" y2="503.75" fill="none" stroke="#333f48" stroke-miterlimit="10"/></g><g><g><line x1="947.62" y1="427.56" x2="971.25" y2="427.56" fill="none" stroke="#333f48" stroke-miterlimit="10"/><line x1="951.06" y1="432.02" x2="967.81" y2="432.02" fill="none" stroke="#333f48" stroke-miterlimit="10"/><line x1="954.5" y1="436.47" x2="964.37" y2="436.47" fill="none" stroke="#333f48" stroke-miterlimit="10"/></g><g><line x1="959.43" y1="392.3" x2="1010.07" y2="392.3" fill="none" stroke="#333f48" stroke-miterlimit="10"/><path d="M1009.91,395.5c1.76,0,3.2-1.43,3.2-3.2s-1.43-3.2-3.2-3.2-3.2,1.43-3.2,3.2,1.43,3.2,3.2,3.2Z" fill="#333f48"/></g><line x1="959.43" y1="427.68" x2="959.43" y2="392.3" fill="none" stroke="#333f48" stroke-miterlimit="10"/></g><g><line x1="270.8" y1="77.36" x2="353.8" y2="77.36" fill="none" stroke="#333f48" stroke-miterlimit="10"/><path d="M270.99,81.12c-2.08,0-3.76-1.68-3.76-3.76s1.68-3.76,3.76-3.76,3.76,1.68,3.76,3.76-1.68,3.76-3.76,3.76Z" fill="#333f48"/></g><g><polygon points="321.67 67.15 338.51 77.36 321.67 87.57 321.67 67.15" fill="#fff"/><path d="M322.17,68.04l15.38,9.33-15.38,9.33v-18.65m-1-1.78v22.2l18.31-11.1-18.31-11.1h0Z" fill="#333f48"/></g><line x1="338.34" y1="68.92" x2="338.34" y2="85.8" fill="none" stroke="#333f48" stroke-miterlimit="10"/></g></g></svg>